ffprobe version n2.8.1 Copyright (c) 2007-2015 the FFmpeg developers
  built with gcc 4.8 (Ubuntu 4.8.4-2ubuntu1~14.04)
  configuration: --prefix=/opt/ffmpeg --pkg-config-flags=--static --enable-gpl --enable-libass --enable-libfdk-aac --enable-libfreetype --enable-libmp3lame --enable-libopus --enable-libtheora --enable-libvorbis --enable-libvpx --enable-libx264 --enable-nonfree
  libavutil      54. 31.100 / 54. 31.100
  libavcodec     56. 60.100 / 56. 60.100
  libavformat    56. 40.101 / 56. 40.101
  libavdevice    56.  4.100 / 56.  4.100
  libavfilter     5. 40.101 /  5. 40.101
  libswscale      3.  1.101 /  3.  1.101
  libswresample   1.  2.101 /  1.  2.101
  libpostproc    53.  3.100 / 53.  3.100
Input #0, mov,mp4,m4a,3gp,3g2,mj2, from 'COLB001 Color Bar.mov':
  Metadata:
    major_brand     : qt  
    minor_version   : 512
    compatible_brands: qt  
    encoder         : Lavf56.40.101
  Duration: 00:00:13.51, start: 0.000000, bitrate: 36537 kb/s
    Stream #0:0(eng): Video: mpeg2video (Main) (xdvb / 0x62766478), yuv420p(tv, unknown/bt709/unknown), 1920x1080 [SAR 1:1 DAR 16:9], 34999 kb/s, 29.97 fps, 29.97 tbr, 30k tbn, 59.94 tbc (default)
    Metadata:
      handler_name    : DataHandler
      encoder         : XDCAM EX 1080i60 (35 Mb/s VBR)
      timecode        : 01:00:00;00
    Stream #0:1(eng): Audio: pcm_s16le (sowt / 0x74776F73), 48000 Hz, stereo, s16, 1536 kb/s (default)
    Metadata:
      handler_name    : DataHandler
    Stream #0:2(eng): Data: none (tmcd / 0x64636D74), 0 kb/s
    Metadata:
      handler_name    : DataHandler
      timecode        : 01:00:00;00
Unsupported codec with id 0 for input stream 2
